<svg width="473" height="157" viewBox="0 0 473 157" fill="none" xmlns="http://www.w3.org/2000/svg">
<line x1="389.5" y1="53" x2="389.5" y2="60" stroke="#249696"/>
<line x1="402" y1="66.5" x2="395" y2="66.5" stroke="#1B8088"/>
<line x1="383" y1="66.5" x2="373" y2="66.5" stroke="#197D86"/>
<line x1="389.5" y1="80" x2="389.5" y2="75" stroke="#0B5D72"/>
<circle cx="389" cy="67" r="7" stroke="url(#paint0_linear_50_2)" stroke-width="2"/>
<circle cx="389" cy="67" r="4" fill="#044E53"/>
<path d="M94 24C94 22.8954 94.8954 22 96 22H119C120.105 22 121 22.8954 121 24V39.7893C121 41.2699 119.447 42.2372 118.118 41.5844L95.1182 30.2861C94.4337 29.9499 94 29.2536 94 28.491V24Z" fill="url(#paint1_linear_50_2)"/>
<path d="M74 53C79.6039 53 84 57.3327 84 62.5C84 67.6673 79.6039 72 74 72C68.3961 72 64 67.6673 64 62.5C64 57.3327 68.3961 53 74 53Z" stroke="#01A5AC" stroke-width="4"/>
<circle cx="74" cy="63" r="5" stroke="#034857" stroke-width="2"/>
<circle cx="74" cy="63" r="1" fill="url(#paint2_linear_50_2)"/>
<line x1="74.5" y1="73" x2="74.5" y2="140" stroke="url(#paint3_linear_50_2)" stroke-width="5"/>
<path d="M104.17 70.6977L87.6394 81.8214C86.532 82.5666 85.8693 83.8151 85.8725 85.1499L86 137" stroke="url(#paint4_linear_50_2)" stroke-width="5"/>
<path d="M108.995 86L98.2085 86.2841C96.5725 86.3272 95.1278 87.3624 94.5612 88.8977L94.0989 90.1503" stroke="url(#paint5_linear_50_2)" stroke-width="5"/>
<path d="M95 132.5L95 103.5C95 102.395 95.8954 101.5 97 101.5H111" stroke="#014153" stroke-width="5"/>
<circle cx="107.5" cy="65.5" r="6" fill="#50F2FA" stroke="#00C7A7" stroke-width="3"/>
<circle cx="114.5" cy="86.5" r="5" fill="#50F2FA" stroke="url(#paint6_linear_50_2)" stroke-width="3"/>
<circle cx="115.5" cy="101.5" r="5" fill="#50F2FA" stroke="url(#paint7_linear_50_2)" stroke-width="3"/>
<path d="M41.3719 70.6977L58.3865 81.8099C59.5358 82.5604 60.228 83.8288 60.2246 85.1775L60.0934 137" stroke="url(#paint8_linear_50_2)" stroke-width="5"/>
<path d="M36.4001 86L47.6265 86.287C49.2474 86.3284 50.6813 87.3441 51.2573 88.8587L51.7484 90.1503" stroke="url(#paint9_linear_50_2)" stroke-width="5"/>
<path d="M51 133L51 104C51 102.895 50.1046 102 49 102H34" stroke="#014153" stroke-width="5"/>
<path d="M38 59.5C34.3175 59.5 31.5 62.276 31.5 65.5C31.5 68.724 34.3175 71.5 38 71.5C41.6825 71.5 44.5 68.724 44.5 65.5C44.5 62.276 41.6825 59.5 38 59.5Z" fill="#50F2FA" stroke="#00C7A7" stroke-width="3"/>
<circle cx="6.5" cy="6.5" r="5" transform="matrix(-1 0 0 1 37 80)" fill="#50F2FA" stroke="url(#paint10_linear_50_2)" stroke-width="3"/>
<circle cx="6.5" cy="6.5" r="5" transform="matrix(-1 0 0 1 36 95)" fill="#50F2FA" stroke="url(#paint11_linear_50_2)" stroke-width="3"/>
<g filter="url(#filter0_d_50_2)">
<path d="M75.832 143.12C75.3696 143.332 74.8467 143.358 74.3691 143.199L74.168 143.12L10.168 113.824C9.45664 113.499 9.00006 112.788 9 112.006L9.00001 55.9941C9.00007 55.2608 9.40092 54.5904 10.0371 54.2412L10.168 54.1758L74.168 24.8799C74.6304 24.6683 75.1533 24.642 75.6309 24.8008L75.832 24.8799L139.832 54.1758C140.543 54.5014 141 55.2118 141 55.9941L141 112.006C141 112.739 140.599 113.41 139.963 113.759L139.832 113.824L75.832 143.12Z" stroke="url(#paint12_linear_50_2)" stroke-width="10" shape-rendering="crispEdges"/>
</g>
<path d="M168.636 50.9434C168.278 49.6413 168.652 48.9902 169.759 48.9902H174.275C175.04 48.9902 175.553 49.5273 175.813 50.6016L180.452 69.791C180.794 71.1908 181.014 72.151 181.111 72.6719C181.225 73.1764 181.323 73.9984 181.404 75.1377H181.526C181.608 73.9984 181.689 73.1357 181.771 72.5498C181.852 71.9639 182.088 70.9954 182.479 69.6445L187.923 50.7969C188.265 49.5924 188.948 48.9902 189.974 48.9902H194.466C195.491 48.9902 196.175 49.5924 196.517 50.7969L201.961 69.6445C202.352 70.9954 202.588 71.9639 202.669 72.5498C202.75 73.1357 202.832 73.9984 202.913 75.1377H203.035C203.117 73.9984 203.206 73.1764 203.304 72.6719C203.418 72.151 203.646 71.1908 203.987 69.791L208.626 50.6016C208.886 49.5273 209.399 48.9902 210.164 48.9902H214.681C215.787 48.9902 216.162 49.6413 215.804 50.9434L207.503 81.6318C207.08 83.2106 206.315 84 205.208 84H200.936C199.992 84 199.3 83.2188 198.86 81.6562L193.001 61.1973C192.675 60.0905 192.488 59.3743 192.439 59.0488C192.391 58.707 192.326 58.0804 192.244 57.1689H192.195C192.114 58.0804 192.049 58.707 192 59.0488C191.951 59.3743 191.764 60.0905 191.438 61.1973L185.579 81.6562C185.14 83.2188 184.448 84 183.504 84H179.231C178.125 84 177.36 83.2106 176.937 81.6318L168.636 50.9434ZM216.78 84C215.608 84 215.226 83.4629 215.633 82.3887L227.596 50.9678C228.1 49.6494 228.865 48.9902 229.891 48.9902H233.309C234.334 48.9902 235.099 49.6494 235.604 50.9678L247.566 82.3887C247.973 83.4629 247.591 84 246.419 84H242.537C241.463 84 240.714 83.4385 240.291 82.3154L237.801 75.748H225.398L222.908 82.3154C222.485 83.4385 221.736 84 220.662 84H216.78ZM227.669 69.6934H235.53L232.527 61.9297C232.169 61.0182 231.95 60.359 231.868 59.9521C231.803 59.529 231.73 58.9105 231.648 58.0967H231.551C231.469 58.9105 231.388 59.529 231.307 59.9521C231.242 60.359 231.03 61.0182 230.672 61.9297L227.669 69.6934ZM253.621 84C252.482 84 251.912 83.3896 251.912 82.1689V50.8213C251.912 49.6006 252.482 48.9902 253.621 48.9902H264.925C269.954 48.9902 273.624 49.7715 275.936 51.334C278.247 52.8802 279.402 55.403 279.402 58.9023C279.402 61.5065 278.466 63.5817 276.595 65.1279C274.723 66.6742 272.347 67.6995 269.466 68.2041V68.2529C271.028 68.8389 272.208 69.6527 273.006 70.6943C273.803 71.736 274.454 72.6475 274.959 73.4287L280.33 81.9004C281.225 83.3001 280.916 84 279.402 84H275.154C274.259 84 273.527 83.5199 272.957 82.5596L268.025 74.332C267.488 73.4531 266.504 72.4928 265.071 71.4512C263.655 70.3932 262.247 69.8643 260.848 69.8643H259.041V82.1689C259.041 83.3896 258.471 84 257.332 84H253.621ZM259.041 63.8096H263.411C266.666 63.8096 268.978 63.4434 270.345 62.7109C271.728 61.9622 272.42 60.7822 272.42 59.1709C272.42 57.4131 271.753 56.2738 270.418 55.7529C269.1 55.2158 267.155 54.9473 264.583 54.9473H259.041V63.8096ZM288.484 84C287.345 84 286.775 83.3896 286.775 82.1689V50.8213C286.775 49.6006 287.345 48.9902 288.484 48.9902H309.432C310.652 48.9902 311.263 49.5192 311.263 50.5771V53.458C311.263 54.516 310.652 55.0449 309.432 55.0449H293.904V62.8086H308.138C309.358 62.8086 309.969 63.3376 309.969 64.3955V67.2764C309.969 68.3343 309.358 68.8633 308.138 68.8633H293.904V77.9453H310.213C311.434 77.9453 312.044 78.4743 312.044 79.5322V82.4131C312.044 83.471 311.434 84 310.213 84H288.484Z" fill="black"/>
<path d="M210.797 109C210.432 109 210.25 108.805 210.25 108.414V98.3828C210.25 97.9922 210.432 97.7969 210.797 97.7969H211.984C212.349 97.7969 212.531 97.9922 212.531 98.3828V108.414C212.531 108.805 212.349 109 211.984 109H210.797ZM215.578 109C215.214 109 215.031 108.805 215.031 108.414V98.3828C215.031 97.9922 215.214 97.7969 215.578 97.7969H216.734C217.182 97.7969 217.521 97.9792 217.75 98.3438L221.734 104.742H221.789C221.763 104.43 221.75 104.117 221.75 103.805V98.3828C221.75 97.9922 221.932 97.7969 222.297 97.7969H223.484C223.849 97.7969 224.031 97.9922 224.031 98.3828V108.414C224.031 108.805 223.849 109 223.484 109H222.406C221.958 109 221.62 108.818 221.391 108.453L217.328 101.938H217.273C217.299 102.25 217.312 102.562 217.312 102.875V108.414C217.312 108.805 217.13 109 216.766 109H215.578ZM225.812 98.3125C225.682 97.9688 225.805 97.7969 226.18 97.7969H227.422C227.771 97.7969 228.01 97.9766 228.141 98.3359L230.531 104.859C230.651 105.193 230.721 105.417 230.742 105.531C230.763 105.641 230.786 105.826 230.812 106.086H230.844C230.87 105.826 230.893 105.641 230.914 105.531C230.935 105.417 231.005 105.193 231.125 104.859L233.516 98.3359C233.646 97.9766 233.885 97.7969 234.234 97.7969H235.477C235.852 97.7969 235.974 97.9688 235.844 98.3125L232.109 108.367C231.953 108.789 231.708 109 231.375 109H230.281C229.948 109 229.703 108.789 229.547 108.367L225.812 98.3125ZM237.781 109C237.417 109 237.234 108.805 237.234 108.414V98.3828C237.234 97.9922 237.417 97.7969 237.781 97.7969H244.484C244.875 97.7969 245.07 97.9661 245.07 98.3047V99.2266C245.07 99.5651 244.875 99.7344 244.484 99.7344H239.516V102.219H244.07C244.461 102.219 244.656 102.388 244.656 102.727V103.648C244.656 103.987 244.461 104.156 244.07 104.156H239.516V107.062H244.734C245.125 107.062 245.32 107.232 245.32 107.57V108.492C245.32 108.831 245.125 109 244.734 109H237.781ZM247.781 109C247.417 109 247.234 108.805 247.234 108.414V98.3828C247.234 97.9922 247.417 97.7969 247.781 97.7969H248.938C249.385 97.7969 249.724 97.9792 249.953 98.3438L253.938 104.742H253.992C253.966 104.43 253.953 104.117 253.953 103.805V98.3828C253.953 97.9922 254.135 97.7969 254.5 97.7969H255.688C256.052 97.7969 256.234 97.9922 256.234 98.3828V108.414C256.234 108.805 256.052 109 255.688 109H254.609C254.161 109 253.823 108.818 253.594 108.453L249.531 101.938H249.477C249.503 102.25 249.516 102.562 249.516 102.875V108.414C249.516 108.805 249.333 109 248.969 109H247.781ZM258.336 99.7969C257.945 99.7969 257.75 99.6276 257.75 99.2891V98.3047C257.75 97.9661 257.945 97.7969 258.336 97.7969H266.367C266.758 97.7969 266.953 97.9661 266.953 98.3047V99.2891C266.953 99.6276 266.758 99.7969 266.367 99.7969H263.492V108.57C263.492 108.857 263.362 109 263.102 109H261.602C261.341 109 261.211 108.857 261.211 108.57V99.7969H258.336ZM267.891 103.398C267.891 101.602 268.354 100.174 269.281 99.1172C270.208 98.0599 271.531 97.5312 273.25 97.5312C274.969 97.5312 276.292 98.0599 277.219 99.1172C278.146 100.174 278.609 101.602 278.609 103.398C278.609 105.195 278.146 106.622 277.219 107.68C276.292 108.737 274.969 109.266 273.25 109.266C271.531 109.266 270.208 108.737 269.281 107.68C268.354 106.622 267.891 105.195 267.891 103.398ZM270.328 103.398C270.328 104.701 270.56 105.698 271.023 106.391C271.492 107.078 272.234 107.422 273.25 107.422C274.266 107.422 275.005 107.078 275.469 106.391C275.938 105.698 276.172 104.701 276.172 103.398C276.172 102.096 275.938 101.102 275.469 100.414C275.005 99.7214 274.266 99.375 273.25 99.375C272.234 99.375 271.492 99.7214 271.023 100.414C270.56 101.102 270.328 102.096 270.328 103.398ZM281.078 109C280.714 109 280.531 108.805 280.531 108.414V98.3828C280.531 97.9922 280.714 97.7969 281.078 97.7969H284.695C286.305 97.7969 287.479 98.0469 288.219 98.5469C288.958 99.0417 289.328 99.849 289.328 100.969C289.328 101.802 289.029 102.466 288.43 102.961C287.831 103.456 287.07 103.784 286.148 103.945V103.961C286.648 104.148 287.026 104.409 287.281 104.742C287.536 105.076 287.745 105.367 287.906 105.617L289.625 108.328C289.911 108.776 289.812 109 289.328 109H287.969C287.682 109 287.448 108.846 287.266 108.539L285.688 105.906C285.516 105.625 285.201 105.318 284.742 104.984C284.289 104.646 283.839 104.477 283.391 104.477H282.812V108.414C282.812 108.805 282.63 109 282.266 109H281.078ZM282.812 102.539H284.211C285.253 102.539 285.992 102.422 286.43 102.188C286.872 101.948 287.094 101.57 287.094 101.055C287.094 100.492 286.88 100.128 286.453 99.9609C286.031 99.7891 285.409 99.7031 284.586 99.7031H282.812V102.539ZM291.234 98.4688C290.969 98.0208 291.091 97.7969 291.602 97.7969H292.969C293.24 97.7969 293.479 97.9766 293.688 98.3359L295.352 101.234C295.398 101.312 295.536 101.557 295.766 101.969C295.995 102.375 296.128 102.771 296.164 103.156H296.195C296.232 102.771 296.365 102.375 296.594 101.969C296.823 101.557 296.961 101.312 297.008 101.234L298.672 98.3359C298.88 97.9766 299.12 97.7969 299.391 97.7969H300.758C301.268 97.7969 301.391 98.0208 301.125 98.4688L297.32 104.898V108.57C297.32 108.857 297.138 109 296.773 109H295.586C295.221 109 295.039 108.857 295.039 108.57V104.898L291.234 98.4688ZM308.391 109C308.026 109 307.844 108.805 307.844 108.414V98.3828C307.844 97.9922 308.026 97.7969 308.391 97.7969H310.656C310.958 97.7969 311.174 98.0052 311.305 98.4219L313.422 105.273C313.516 105.57 313.581 105.815 313.617 106.008C313.654 106.195 313.685 106.419 313.711 106.68H313.758C313.784 106.419 313.815 106.195 313.852 106.008C313.888 105.815 313.953 105.57 314.047 105.273L316.164 98.4219C316.294 98.0052 316.51 97.7969 316.812 97.7969H319.078C319.443 97.7969 319.625 97.9922 319.625 98.3828V108.414C319.625 108.805 319.443 109 319.078 109H317.891C317.526 109 317.344 108.805 317.344 108.414V101.961C317.344 101.648 317.357 101.336 317.383 101.023H317.328L315.07 108.367C314.94 108.789 314.716 109 314.398 109H313.07C312.753 109 312.529 108.789 312.398 108.367L310.141 101.023H310.086C310.112 101.336 310.125 101.648 310.125 101.961V108.414C310.125 108.805 309.943 109 309.578 109H308.391ZM321.773 109C321.398 109 321.276 108.828 321.406 108.484L325.234 98.4297C325.396 98.0078 325.641 97.7969 325.969 97.7969H327.062C327.391 97.7969 327.635 98.0078 327.797 98.4297L331.625 108.484C331.755 108.828 331.633 109 331.258 109H330.016C329.672 109 329.432 108.82 329.297 108.461L328.5 106.359H324.531L323.734 108.461C323.599 108.82 323.359 109 323.016 109H321.773ZM325.258 104.422H327.773L326.812 101.938C326.698 101.646 326.628 101.435 326.602 101.305C326.581 101.169 326.557 100.971 326.531 100.711H326.5C326.474 100.971 326.448 101.169 326.422 101.305C326.401 101.435 326.333 101.646 326.219 101.938L325.258 104.422ZM333.562 109C333.198 109 333.016 108.805 333.016 108.414V98.3828C333.016 97.9922 333.198 97.7969 333.562 97.7969H334.719C335.167 97.7969 335.505 97.9792 335.734 98.3438L339.719 104.742H339.773C339.747 104.43 339.734 104.117 339.734 103.805V98.3828C339.734 97.9922 339.917 97.7969 340.281 97.7969H341.469C341.833 97.7969 342.016 97.9922 342.016 98.3828V108.414C342.016 108.805 341.833 109 341.469 109H340.391C339.943 109 339.604 108.818 339.375 108.453L335.312 101.938H335.258C335.284 102.25 335.297 102.562 335.297 102.875V108.414C335.297 108.805 335.115 109 334.75 109H333.562ZM344.164 109C343.789 109 343.667 108.828 343.797 108.484L347.625 98.4297C347.786 98.0078 348.031 97.7969 348.359 97.7969H349.453C349.781 97.7969 350.026 98.0078 350.188 98.4297L354.016 108.484C354.146 108.828 354.023 109 353.648 109H352.406C352.062 109 351.823 108.82 351.688 108.461L350.891 106.359H346.922L346.125 108.461C345.99 108.82 345.75 109 345.406 109H344.164ZM347.648 104.422H350.164L349.203 101.938C349.089 101.646 349.018 101.435 348.992 101.305C348.971 101.169 348.948 100.971 348.922 100.711H348.891C348.865 100.971 348.839 101.169 348.812 101.305C348.792 101.435 348.724 101.646 348.609 101.938L347.648 104.422ZM354.828 103.398C354.828 101.602 355.297 100.174 356.234 99.1172C357.172 98.0599 358.5 97.5312 360.219 97.5312C361.255 97.5312 362.068 97.6641 362.656 97.9297C363.25 98.1953 363.771 98.6068 364.219 99.1641C364.49 99.5026 364.482 99.7656 364.195 99.9531L363.305 100.531C363.044 100.703 362.766 100.628 362.469 100.305C362.224 100.039 361.914 99.8177 361.539 99.6406C361.164 99.4635 360.75 99.375 360.297 99.375C359.203 99.375 358.424 99.7214 357.961 100.414C357.497 101.102 357.266 102.096 357.266 103.398C357.266 104.701 357.497 105.698 357.961 106.391C358.424 107.078 359.203 107.422 360.297 107.422C360.828 107.422 361.286 107.37 361.672 107.266C362.057 107.156 362.422 106.961 362.766 106.68V105.281H361.07C360.68 105.281 360.484 105.112 360.484 104.773V103.852C360.484 103.513 360.68 103.344 361.07 103.344H364.461C364.852 103.344 365.047 103.513 365.047 103.852V107.82C364.318 108.357 363.581 108.732 362.836 108.945C362.096 109.159 361.224 109.266 360.219 109.266C358.526 109.266 357.203 108.737 356.25 107.68C355.302 106.622 354.828 105.195 354.828 103.398ZM367.719 109C367.354 109 367.172 108.805 367.172 108.414V98.3828C367.172 97.9922 367.354 97.7969 367.719 97.7969H374.422C374.812 97.7969 375.008 97.9661 375.008 98.3047V99.2266C375.008 99.5651 374.812 99.7344 374.422 99.7344H369.453V102.219H374.008C374.398 102.219 374.594 102.388 374.594 102.727V103.648C374.594 103.987 374.398 104.156 374.008 104.156H369.453V107.062H374.672C375.062 107.062 375.258 107.232 375.258 107.57V108.492C375.258 108.831 375.062 109 374.672 109H367.719ZM377.719 109C377.354 109 377.172 108.805 377.172 108.414V98.3828C377.172 97.9922 377.354 97.7969 377.719 97.7969H379.984C380.286 97.7969 380.503 98.0052 380.633 98.4219L382.75 105.273C382.844 105.57 382.909 105.815 382.945 106.008C382.982 106.195 383.013 106.419 383.039 106.68H383.086C383.112 106.419 383.143 106.195 383.18 106.008C383.216 105.815 383.281 105.57 383.375 105.273L385.492 98.4219C385.622 98.0052 385.839 97.7969 386.141 97.7969H388.406C388.771 97.7969 388.953 97.9922 388.953 98.3828V108.414C388.953 108.805 388.771 109 388.406 109H387.219C386.854 109 386.672 108.805 386.672 108.414V101.961C386.672 101.648 386.685 101.336 386.711 101.023H386.656L384.398 108.367C384.268 108.789 384.044 109 383.727 109H382.398C382.081 109 381.857 108.789 381.727 108.367L379.469 101.023H379.414C379.44 101.336 379.453 101.648 379.453 101.961V108.414C379.453 108.805 379.271 109 378.906 109H377.719ZM392 109C391.635 109 391.453 108.805 391.453 108.414V98.3828C391.453 97.9922 391.635 97.7969 392 97.7969H398.703C399.094 97.7969 399.289 97.9661 399.289 98.3047V99.2266C399.289 99.5651 399.094 99.7344 398.703 99.7344H393.734V102.219H398.289C398.68 102.219 398.875 102.388 398.875 102.727V103.648C398.875 103.987 398.68 104.156 398.289 104.156H393.734V107.062H398.953C399.344 107.062 399.539 107.232 399.539 107.57V108.492C399.539 108.831 399.344 109 398.953 109H392ZM402 109C401.635 109 401.453 108.805 401.453 108.414V98.3828C401.453 97.9922 401.635 97.7969 402 97.7969H403.156C403.604 97.7969 403.943 97.9792 404.172 98.3438L408.156 104.742H408.211C408.185 104.43 408.172 104.117 408.172 103.805V98.3828C408.172 97.9922 408.354 97.7969 408.719 97.7969H409.906C410.271 97.7969 410.453 97.9922 410.453 98.3828V108.414C410.453 108.805 410.271 109 409.906 109H408.828C408.38 109 408.042 108.818 407.812 108.453L403.75 101.938H403.695C403.721 102.25 403.734 102.562 403.734 102.875V108.414C403.734 108.805 403.552 109 403.188 109H402ZM412.555 99.7969C412.164 99.7969 411.969 99.6276 411.969 99.2891V98.3047C411.969 97.9661 412.164 97.7969 412.555 97.7969H420.586C420.977 97.7969 421.172 97.9661 421.172 98.3047V99.2891C421.172 99.6276 420.977 99.7969 420.586 99.7969H417.711V108.57C417.711 108.857 417.581 109 417.32 109H415.82C415.56 109 415.43 108.857 415.43 108.57V99.7969H412.555ZM209.523 121.422C209.409 121.005 209.529 120.797 209.883 120.797H211.328C211.573 120.797 211.737 120.969 211.82 121.312L213.305 127.453C213.414 127.901 213.484 128.208 213.516 128.375C213.552 128.536 213.583 128.799 213.609 129.164H213.648C213.674 128.799 213.701 128.523 213.727 128.336C213.753 128.148 213.828 127.839 213.953 127.406L215.695 121.375C215.805 120.99 216.023 120.797 216.352 120.797H217.789C218.117 120.797 218.336 120.99 218.445 121.375L220.188 127.406C220.312 127.839 220.388 128.148 220.414 128.336C220.44 128.523 220.466 128.799 220.492 129.164H220.531C220.557 128.799 220.586 128.536 220.617 128.375C220.654 128.208 220.727 127.901 220.836 127.453L222.32 121.312C222.404 120.969 222.568 120.797 222.812 120.797H224.258C224.612 120.797 224.732 121.005 224.617 121.422L221.961 131.242C221.826 131.747 221.581 132 221.227 132H219.859C219.557 132 219.336 131.75 219.195 131.25L217.32 124.703C217.216 124.349 217.156 124.12 217.141 124.016C217.125 123.906 217.104 123.706 217.078 123.414H217.062C217.036 123.706 217.016 123.906 217 124.016C216.984 124.12 216.924 124.349 216.82 124.703L214.945 131.25C214.805 131.75 214.583 132 214.281 132H212.914C212.56 132 212.315 131.747 212.18 131.242L209.523 121.422ZM226.594 132C226.229 132 226.047 131.805 226.047 131.414V121.383C226.047 120.992 226.229 120.797 226.594 120.797H227.781C228.146 120.797 228.328 120.992 228.328 121.383V131.414C228.328 131.805 228.146 132 227.781 132H226.594ZM230.43 122.797C230.039 122.797 229.844 122.628 229.844 122.289V121.305C229.844 120.966 230.039 120.797 230.43 120.797H238.461C238.852 120.797 239.047 120.966 239.047 121.305V122.289C239.047 122.628 238.852 122.797 238.461 122.797H235.586V131.57C235.586 131.857 235.456 132 235.195 132H233.695C233.435 132 233.305 131.857 233.305 131.57V122.797H230.43ZM241.109 132C240.745 132 240.562 131.805 240.562 131.414V121.383C240.562 120.992 240.745 120.797 241.109 120.797H242.297C242.661 120.797 242.844 120.992 242.844 121.383V125.203H247.047V121.383C247.047 120.992 247.229 120.797 247.594 120.797H248.781C249.146 120.797 249.328 120.992 249.328 121.383V131.414C249.328 131.805 249.146 132 248.781 132H247.594C247.229 132 247.047 131.805 247.047 131.414V127.141H242.844V131.414C242.844 131.805 242.661 132 242.297 132H241.109ZM257.844 132C257.479 132 257.297 131.805 257.297 131.414V121.383C257.297 120.992 257.479 120.797 257.844 120.797H259.031C259.396 120.797 259.578 120.992 259.578 121.383V131.414C259.578 131.805 259.396 132 259.031 132H257.844ZM261.5 126.398C261.5 124.602 261.964 123.174 262.891 122.117C263.818 121.06 265.141 120.531 266.859 120.531C268.578 120.531 269.901 121.06 270.828 122.117C271.755 123.174 272.219 124.602 272.219 126.398C272.219 128.195 271.755 129.622 270.828 130.68C269.901 131.737 268.578 132.266 266.859 132.266C265.141 132.266 263.818 131.737 262.891 130.68C261.964 129.622 261.5 128.195 261.5 126.398ZM263.938 126.398C263.938 127.701 264.169 128.698 264.633 129.391C265.102 130.078 265.844 130.422 266.859 130.422C267.875 130.422 268.615 130.078 269.078 129.391C269.547 128.698 269.781 127.701 269.781 126.398C269.781 125.096 269.547 124.102 269.078 123.414C268.615 122.721 267.875 122.375 266.859 122.375C265.844 122.375 265.102 122.721 264.633 123.414C264.169 124.102 263.938 125.096 263.938 126.398ZM273.742 122.797C273.352 122.797 273.156 122.628 273.156 122.289V121.305C273.156 120.966 273.352 120.797 273.742 120.797H281.773C282.164 120.797 282.359 120.966 282.359 121.305V122.289C282.359 122.628 282.164 122.797 281.773 122.797H278.898V131.57C278.898 131.857 278.768 132 278.508 132H277.008C276.747 132 276.617 131.857 276.617 131.57V122.797H273.742ZM289.891 132C289.526 132 289.344 131.805 289.344 131.414V121.383C289.344 120.992 289.526 120.797 289.891 120.797H291.078C291.443 120.797 291.625 120.992 291.625 121.383V131.414C291.625 131.805 291.443 132 291.078 132H289.891ZM294.672 132C294.307 132 294.125 131.805 294.125 131.414V121.383C294.125 120.992 294.307 120.797 294.672 120.797H295.828C296.276 120.797 296.615 120.979 296.844 121.344L300.828 127.742H300.883C300.857 127.43 300.844 127.117 300.844 126.805V121.383C300.844 120.992 301.026 120.797 301.391 120.797H302.578C302.943 120.797 303.125 120.992 303.125 121.383V131.414C303.125 131.805 302.943 132 302.578 132H301.5C301.052 132 300.714 131.818 300.484 131.453L296.422 124.938H296.367C296.393 125.25 296.406 125.562 296.406 125.875V131.414C296.406 131.805 296.224 132 295.859 132H294.672ZM305.227 122.797C304.836 122.797 304.641 122.628 304.641 122.289V121.305C304.641 120.966 304.836 120.797 305.227 120.797H313.258C313.648 120.797 313.844 120.966 313.844 121.305V122.289C313.844 122.628 313.648 122.797 313.258 122.797H310.383V131.57C310.383 131.857 310.253 132 309.992 132H308.492C308.232 132 308.102 131.857 308.102 131.57V122.797H305.227ZM315.906 132C315.542 132 315.359 131.805 315.359 131.414V121.383C315.359 120.992 315.542 120.797 315.906 120.797H322.609C323 120.797 323.195 120.966 323.195 121.305V122.227C323.195 122.565 323 122.734 322.609 122.734H317.641V125.219H322.195C322.586 125.219 322.781 125.388 322.781 125.727V126.648C322.781 126.987 322.586 127.156 322.195 127.156H317.641V130.062H322.859C323.25 130.062 323.445 130.232 323.445 130.57V131.492C323.445 131.831 323.25 132 322.859 132H315.906ZM324.781 126.398C324.781 124.602 325.25 123.174 326.188 122.117C327.125 121.06 328.453 120.531 330.172 120.531C331.208 120.531 332.021 120.664 332.609 120.93C333.203 121.195 333.724 121.607 334.172 122.164C334.443 122.503 334.435 122.766 334.148 122.953L333.258 123.531C332.997 123.703 332.719 123.628 332.422 123.305C332.177 123.039 331.867 122.818 331.492 122.641C331.117 122.464 330.703 122.375 330.25 122.375C329.156 122.375 328.378 122.721 327.914 123.414C327.451 124.102 327.219 125.096 327.219 126.398C327.219 127.701 327.451 128.698 327.914 129.391C328.378 130.078 329.156 130.422 330.25 130.422C330.781 130.422 331.24 130.37 331.625 130.266C332.01 130.156 332.375 129.961 332.719 129.68V128.281H331.023C330.633 128.281 330.438 128.112 330.438 127.773V126.852C330.438 126.513 330.633 126.344 331.023 126.344H334.414C334.805 126.344 335 126.513 335 126.852V130.82C334.271 131.357 333.534 131.732 332.789 131.945C332.049 132.159 331.177 132.266 330.172 132.266C328.479 132.266 327.156 131.737 326.203 130.68C325.255 129.622 324.781 128.195 324.781 126.398ZM337.672 132C337.307 132 337.125 131.805 337.125 131.414V121.383C337.125 120.992 337.307 120.797 337.672 120.797H341.289C342.898 120.797 344.073 121.047 344.812 121.547C345.552 122.042 345.922 122.849 345.922 123.969C345.922 124.802 345.622 125.466 345.023 125.961C344.424 126.456 343.664 126.784 342.742 126.945V126.961C343.242 127.148 343.62 127.409 343.875 127.742C344.13 128.076 344.339 128.367 344.5 128.617L346.219 131.328C346.505 131.776 346.406 132 345.922 132H344.562C344.276 132 344.042 131.846 343.859 131.539L342.281 128.906C342.109 128.625 341.794 128.318 341.336 127.984C340.883 127.646 340.432 127.477 339.984 127.477H339.406V131.414C339.406 131.805 339.224 132 338.859 132H337.672ZM339.406 125.539H340.805C341.846 125.539 342.586 125.422 343.023 125.188C343.466 124.948 343.688 124.57 343.688 124.055C343.688 123.492 343.474 123.128 343.047 122.961C342.625 122.789 342.003 122.703 341.18 122.703H339.406V125.539ZM347.93 132C347.555 132 347.432 131.828 347.562 131.484L351.391 121.43C351.552 121.008 351.797 120.797 352.125 120.797H353.219C353.547 120.797 353.792 121.008 353.953 121.43L357.781 131.484C357.911 131.828 357.789 132 357.414 132H356.172C355.828 132 355.589 131.82 355.453 131.461L354.656 129.359H350.688L349.891 131.461C349.755 131.82 349.516 132 349.172 132H347.93ZM351.414 127.422H353.93L352.969 124.938C352.854 124.646 352.784 124.435 352.758 124.305C352.737 124.169 352.714 123.971 352.688 123.711H352.656C352.63 123.971 352.604 124.169 352.578 124.305C352.557 124.435 352.49 124.646 352.375 124.938L351.414 127.422ZM357.414 122.797C357.023 122.797 356.828 122.628 356.828 122.289V121.305C356.828 120.966 357.023 120.797 357.414 120.797H365.445C365.836 120.797 366.031 120.966 366.031 121.305V122.289C366.031 122.628 365.836 122.797 365.445 122.797H362.57V131.57C362.57 131.857 362.44 132 362.18 132H360.68C360.419 132 360.289 131.857 360.289 131.57V122.797H357.414ZM368.094 132C367.729 132 367.547 131.805 367.547 131.414V121.383C367.547 120.992 367.729 120.797 368.094 120.797H369.281C369.646 120.797 369.828 120.992 369.828 121.383V131.414C369.828 131.805 369.646 132 369.281 132H368.094ZM371.75 126.398C371.75 124.602 372.214 123.174 373.141 122.117C374.068 121.06 375.391 120.531 377.109 120.531C378.828 120.531 380.151 121.06 381.078 122.117C382.005 123.174 382.469 124.602 382.469 126.398C382.469 128.195 382.005 129.622 381.078 130.68C380.151 131.737 378.828 132.266 377.109 132.266C375.391 132.266 374.068 131.737 373.141 130.68C372.214 129.622 371.75 128.195 371.75 126.398ZM374.188 126.398C374.188 127.701 374.419 128.698 374.883 129.391C375.352 130.078 376.094 130.422 377.109 130.422C378.125 130.422 378.865 130.078 379.328 129.391C379.797 128.698 380.031 127.701 380.031 126.398C380.031 125.096 379.797 124.102 379.328 123.414C378.865 122.721 378.125 122.375 377.109 122.375C376.094 122.375 375.352 122.721 374.883 123.414C374.419 124.102 374.188 125.096 374.188 126.398ZM384.938 132C384.573 132 384.391 131.805 384.391 131.414V121.383C384.391 120.992 384.573 120.797 384.938 120.797H386.094C386.542 120.797 386.88 120.979 387.109 121.344L391.094 127.742H391.148C391.122 127.43 391.109 127.117 391.109 126.805V121.383C391.109 120.992 391.292 120.797 391.656 120.797H392.844C393.208 120.797 393.391 120.992 393.391 121.383V131.414C393.391 131.805 393.208 132 392.844 132H391.766C391.318 132 390.979 131.818 390.75 131.453L386.688 124.938H386.633C386.659 125.25 386.672 125.562 386.672 125.875V131.414C386.672 131.805 386.49 132 386.125 132H384.938Z" fill="black"/>
<path d="M318.615 84C317.476 84 316.906 83.3896 316.906 82.1689V50.8213C316.906 49.6006 317.476 48.9902 318.615 48.9902H337.927C339.147 48.9902 339.758 49.5192 339.758 50.5771V53.458C339.758 54.516 339.147 55.0449 337.927 55.0449H324.035V63.541H335.925C337.146 63.541 337.756 64.07 337.756 65.1279V68.0088C337.756 69.0667 337.146 69.5957 335.925 69.5957H324.035V82.1689C324.035 83.3896 323.465 84 322.326 84H318.615ZM347.326 84C346.187 84 345.617 83.3896 345.617 82.1689V50.8213C345.617 49.6006 346.187 48.9902 347.326 48.9902H351.281C352.258 48.9902 352.746 49.6006 352.746 50.8213V77.9453H366.979C368.2 77.9453 368.811 78.4743 368.811 79.5322V82.4131C368.811 83.471 368.2 84 366.979 84H347.326ZM372.18 66.4951C372.18 60.8799 373.628 56.4202 376.525 53.1162C379.423 49.8122 383.557 48.1602 388.928 48.1602C394.299 48.1602 398.433 49.8122 401.33 53.1162C404.227 56.4202 405.676 60.8799 405.676 66.4951C405.676 72.1104 404.227 76.57 401.33 79.874C398.433 83.1781 394.299 84.8301 388.928 84.8301C383.557 84.8301 379.423 83.1781 376.525 79.874C373.628 76.57 372.18 72.1104 372.18 66.4951ZM379.797 66.4951C379.797 70.5641 380.521 73.681 381.97 75.8457C383.435 77.9941 385.754 79.0684 388.928 79.0684C392.102 79.0684 394.413 77.9941 395.861 75.8457C397.326 73.681 398.059 70.5641 398.059 66.4951C398.059 62.4261 397.326 59.3174 395.861 57.1689C394.413 55.0042 392.102 53.9219 388.928 53.9219C385.754 53.9219 383.435 55.0042 381.97 57.1689C380.521 59.3174 379.797 62.4261 379.797 66.4951ZM409.411 50.9434C409.053 49.6413 409.427 48.9902 410.534 48.9902H415.051C415.816 48.9902 416.328 49.5273 416.589 50.6016L421.228 69.791C421.569 71.1908 421.789 72.151 421.887 72.6719C422.001 73.1764 422.098 73.9984 422.18 75.1377H422.302C422.383 73.9984 422.465 73.1357 422.546 72.5498C422.627 71.9639 422.863 70.9954 423.254 69.6445L428.698 50.7969C429.04 49.5924 429.724 48.9902 430.749 48.9902H435.241C436.267 48.9902 436.95 49.5924 437.292 50.7969L442.736 69.6445C443.127 70.9954 443.363 71.9639 443.444 72.5498C443.526 73.1357 443.607 73.9984 443.688 75.1377H443.811C443.892 73.9984 443.981 73.1764 444.079 72.6719C444.193 72.151 444.421 71.1908 444.763 69.791L449.401 50.6016C449.662 49.5273 450.174 48.9902 450.939 48.9902H455.456C456.563 48.9902 456.937 49.6413 456.579 50.9434L448.278 81.6318C447.855 83.2106 447.09 84 445.983 84H441.711C440.767 84 440.075 83.2188 439.636 81.6562L433.776 61.1973C433.451 60.0905 433.264 59.3743 433.215 59.0488C433.166 58.707 433.101 58.0804 433.02 57.1689H432.971C432.889 58.0804 432.824 58.707 432.775 59.0488C432.727 59.3743 432.539 60.0905 432.214 61.1973L426.354 81.6562C425.915 83.2188 425.223 84 424.279 84H420.007C418.9 84 418.135 83.2106 417.712 81.6318L409.411 50.9434Z" fill="url(#paint13_linear_50_2)"/>
<rect x="175" y="110" width="23" height="5" rx="2.5" fill="#01202F"/>
<rect x="430" y="112" width="22" height="5" rx="2.5" fill="#01202F"/>
<defs>
<filter id="filter0_d_50_2" x="0" y="19.6985" width="150" height="136.603" filterUnits="userSpaceOnUse" color-interpolation-filters="sRGB">
<feFlood flood-opacity="0" result="BackgroundImageFix"/>
<feColorMatrix in="SourceAlpha" type="matrix" values="0 0 0 0 0 0 0 0 0 0 0 0 0 0 0 0 0 0 127 0" result="hardAlpha"/>
<feOffset dy="4"/>
<feGaussianBlur stdDeviation="2"/>
<feComposite in2="hardAlpha" operator="out"/>
<feColorMatrix type="matrix" values="0 0 0 0 0 0 0 0 0 0 0 0 0 0 0 0 0 0 0.25 0"/>
<feBlend mode="normal" in2="BackgroundImageFix" result="effect1_dropShadow_50_2"/>
<feBlend mode="normal" in="SourceGraphic" in2="effect1_dropShadow_50_2" result="shape"/>
</filter>
<linearGradient id="paint0_linear_50_2" x1="389" y1="59" x2="389" y2="75" gradientUnits="userSpaceOnUse">
<stop stop-color="#269998"/>
<stop offset="1" stop-color="#0A5A70"/>
</linearGradient>
<linearGradient id="paint1_linear_50_2" x1="107.5" y1="22" x2="107.5" y2="43" gradientUnits="userSpaceOnUse">
<stop stop-color="#0F9C93"/>
<stop offset="1" stop-color="#16777B"/>
</linearGradient>
<linearGradient id="paint2_linear_50_2" x1="74" y1="62" x2="74" y2="64" gradientUnits="userSpaceOnUse">
<stop stop-color="#182E4D"/>
<stop offset="1" stop-color="#009C9A"/>
</linearGradient>
<linearGradient id="paint3_linear_50_2" x1="71.5" y1="73" x2="71.5" y2="140" gradientUnits="userSpaceOnUse">
<stop offset="0.0192308" stop-color="#01A5AC"/>
<stop offset="0.235577" stop-color="#07424F"/>
</linearGradient>
<linearGradient id="paint4_linear_50_2" x1="102.63" y1="70.0544" x2="76.3401" y2="132.963" gradientUnits="userSpaceOnUse">
<stop offset="0.105769" stop-color="#04C1AE"/>
<stop offset="0.283654" stop-color="#07424F"/>
</linearGradient>
<linearGradient id="paint5_linear_50_2" x1="109.044" y1="87.8777" x2="94.0495" y2="88.2726" gradientUnits="userSpaceOnUse">
<stop offset="0.1875" stop-color="#01A79D"/>
<stop offset="0.701923" stop-color="#04656B"/>
</linearGradient>
<linearGradient id="paint6_linear_50_2" x1="114.5" y1="80" x2="114.5" y2="93" gradientUnits="userSpaceOnUse">
<stop offset="0.288462" stop-color="#02BEAD"/>
<stop offset="0.576923" stop-color="#018283"/>
</linearGradient>
<linearGradient id="paint7_linear_50_2" x1="115.5" y1="95" x2="115.5" y2="108" gradientUnits="userSpaceOnUse">
<stop offset="0.259615" stop-color="#015B69"/>
<stop offset="0.384615" stop-color="#04354B"/>
</linearGradient>
<linearGradient id="paint8_linear_50_2" x1="42.9581" y1="70.0544" x2="68.6956" y2="133.511" gradientUnits="userSpaceOnUse">
<stop offset="0.105769" stop-color="#04C1AE"/>
<stop offset="0.283654" stop-color="#07424F"/>
</linearGradient>
<linearGradient id="paint9_linear_50_2" x1="36.3492" y1="87.8777" x2="51.7987" y2="88.2969" gradientUnits="userSpaceOnUse">
<stop offset="0.1875" stop-color="#01A79D"/>
<stop offset="0.701923" stop-color="#04656B"/>
</linearGradient>
<linearGradient id="paint10_linear_50_2" x1="6.5" y1="0" x2="6.5" y2="13" gradientUnits="userSpaceOnUse">
<stop offset="0.288462" stop-color="#02BEAD"/>
<stop offset="0.576923" stop-color="#018283"/>
</linearGradient>
<linearGradient id="paint11_linear_50_2" x1="6.5" y1="0" x2="6.5" y2="13" gradientUnits="userSpaceOnUse">
<stop offset="0.259615" stop-color="#015B69"/>
<stop offset="0.384615" stop-color="#04354B"/>
</linearGradient>
<linearGradient id="paint12_linear_50_2" x1="75" y1="149" x2="75" y2="19" gradientUnits="userSpaceOnUse">
<stop offset="0.192308" stop-color="#082433"/>
<stop offset="0.711538" stop-color="#026374"/>
<stop offset="0.956731" stop-color="#029591"/>
</linearGradient>
<linearGradient id="paint13_linear_50_2" x1="393" y1="0" x2="393" y2="140" gradientUnits="userSpaceOnUse">
<stop offset="0.461538" stop-color="#03BDB4"/>
<stop offset="0.673077" stop-color="#015753"/>
</linearGradient>
</defs>
</svg>
